name Walk3.mot
datacolumns 19
datarows 17
range 3.66600000 3.68200000
endheader

                time	   L_ground_force_vx	   L_ground_force_vy	   L_ground_force_vz	   L_ground_force_px	   L_ground_force_py	   L_ground_force_pz	   R_ground_force_vx	   R_ground_force_vy	   R_ground_force_vz	   R_ground_force_px	   R_ground_force_py	   R_ground_force_pz	   L_ground_torque_x	   L_ground_torque_y	   L_ground_torque_z	   R_ground_torque_x	   R_ground_torque_y	   R_ground_torque_z	
          3.66600000	         -3.64924734	         90.41840624	         -3.80116108	          0.00290773	          0.00000000	          0.00091409	         -0.00000000	          0.00000000	          0.00000000	          0.00000000	          0.00000000	          0.00000000	          0.00000000	          0.20292896	          0.00000000	          0.00000000	          0.00000000	          0.00000000	
          3.66700000	         -4.34825087	         99.39505717	         -4.32210408	         -0.01309483	          0.00000000	         -0.00198270	         -0.00000000	          0.00000000	          0.00000000	          0.00000000	          0.00000000	          0.00000000	          0.00000000	          0.22302565	          0.00000000	          0.00000000	          0.00000000	          0.00000000	
          3.66800000	         -5.10501870	        108.66866463	         -4.83983575	         -0.02903622	          0.00000000	         -0.00487073	         -0.00000000	          0.00000000	          0.00000000	          0.00000000	          0.00000000	          0.00000000	          0.00000000	          0.24386510	          0.00000000	          0.00000000	          0.00000000	          0.00000000	
          3.66900000	         -5.92159135	        118.23085195	         -5.35252059	         -0.04486897	          0.00000000	         -0.00774154	         -0.00000000	          0.00000000	          0.00000000	          0.00000000	          0.00000000	          0.00000000	          0.00000000	          0.26543358	          0.00000000	          0.00000000	          0.00000000	          0.00000000	
          3.67000000	         -6.79992828	        128.07155813	         -5.85825228	         -0.06054555	          0.00000000	         -0.01058667	         -0.00000000	          0.00000000	          0.00000000	          0.00000000	          0.00000000	          0.00000000	          0.00000000	          0.28771364	          0.00000000	          0.00000000	          0.00000000	          0.00000000	
          3.67100000	         -7.74189053	        138.17895166	         -6.35506645	         -0.07601958	          0.00000000	         -0.01339788	         -0.00000000	          0.00000000	          0.00000000	          0.00000000	          0.00000000	          0.00000000	          0.00000000	          0.31068389	          0.00000000	          0.00000000	          0.00000000	          0.00000000	
          3.67200000	         -8.74921745	        148.53940121	         -6.84097027	         -0.09124774	          0.00000000	         -0.01616754	         -0.00000000	          0.00000000	          0.00000000	          0.00000000	          0.00000000	          0.00000000	          0.00000000	          0.33431896	          0.00000000	          0.00000000	          0.00000000	          0.00000000	
          3.67300000	         -9.82349839	        159.13747211	         -7.31397355	         -0.10619108	          0.00000000	         -0.01888882	         -0.00000000	          0.00000000	          0.00000000	          0.00000000	          0.00000000	          0.00000000	          0.00000000	          0.35858935	          0.00000000	          0.00000000	          0.00000000	          0.00000000	
          3.67400000	        -10.96614019	        169.95593335	         -7.77211240	         -0.12081503	          0.00000000	         -0.02155572	         -0.00000000	          0.00000000	          0.00000000	          0.00000000	          0.00000000	          0.00000000	          0.00000000	          0.38346116	          0.00000000	          0.00000000	          0.00000000	          0.00000000	
          3.67500000	        -12.17832903	        180.97579461	         -8.21346882	         -0.13508923	          0.00000000	         -0.02416297	         -0.00000000	          0.00000000	          0.00000000	          0.00000000	          0.00000000	          0.00000000	          0.00000000	          0.40889568	          0.00000000	          0.00000000	          0.00000000	          0.00000000	
          3.67600000	        -13.46098569	        192.17639356	         -8.63618900	         -0.14898724	          0.00000000	         -0.02670602	         -0.00000000	          0.00000000	          0.00000000	          0.00000000	          0.00000000	          0.00000000	          0.00000000	          0.43484911	          0.00000000	          0.00000000	          0.00000000	          0.00000000	
          3.67700000	        -14.81471427	        203.53554752	         -9.03850041	         -0.16248633	          0.00000000	         -0.02918097	         -0.00000000	          0.00000000	          0.00000000	          0.00000000	          0.00000000	          0.00000000	          0.00000000	          0.46127235	          0.00000000	          0.00000000	          0.00000000	          0.00000000	
          3.67800000	        -16.23974570	        215.02978024	         -9.41872681	         -0.17556719	          0.00000000	         -0.03158454	         -0.00000000	          0.00000000	          0.00000000	          0.00000000	          0.00000000	          0.00000000	          0.00000000	          0.48811098	          0.00000000	          0.00000000	          0.00000000	          0.00000000	
          3.67900000	        -17.73587884	        226.63462639	         -9.77530018	         -0.18821377	          0.00000000	         -0.03391400	         -0.00000000	          0.00000000	          0.00000000	          0.00000000	          0.00000000	          0.00000000	          0.00000000	          0.51530565	          0.00000000	          0.00000000	          0.00000000	          0.00000000	
          3.68000000	        -19.30242330	        238.32500446	        -10.10676767	         -0.20041302	          0.00000000	         -0.03616717	         -0.00000000	          0.00000000	          0.00000000	          0.00000000	          0.00000000	          0.00000000	          0.00000000	          0.54279269	          0.00000000	          0.00000000	          0.00000000	          0.00000000	
          3.68100000	        -20.93814950	        250.07563531	        -10.41179241	         -0.21215470	          0.00000000	         -0.03834235	         -0.00000000	          0.00000000	          0.00000000	          0.00000000	          0.00000000	          0.00000000	          0.00000000	          0.57050511	          0.00000000	          0.00000000	          0.00000000	          0.00000000	
          3.68200000	        -22.64125103	        261.86147311	        -10.68914730	         -0.22343118	          0.00000000	         -0.04043827	         -0.00000000	          0.00000000	          0.00000000	          0.00000000	          0.00000000	          0.00000000	          0.00000000	          0.59837366	          0.00000000	          0.00000000	          0.00000000	          0.00000000	
